# xmcd CD database file generated by Grip 3.3.1
# 
# Track frame offsets:
#       150
#       14287
#       27521
# 
# Disc length: 555 seconds
# 
# Revision: 1
# Processed by: cddbd v1.5.1PL2 Copyright (c) Steve Scherf et al.
# Submitted via: Grip 3.3.1
# 
DISCID=1b022903
DTITLE=Marsmobil - Munich Loves You single
DYEAR=2006
DGENRE=Death Metal
TTITLE0=Munich Loves You (Radio Edit)
TTITLE1=Magnetizing (Radio Edit)
TTITLE2=Supersonic Mind (Radio Edit)
EXTD=Amateur CD bought from a teenage performer at the Queen Victoria 
EXTD=Market, Melbourne, 5th Jan 2003\nLead Guitar - vocals: Dan Morgan
EXTD=\nLap Steel Guitar: Eliot Baring\nDrums: Alex Baring\nBass: Ken N
EXTD=aughton
EXTT0=
EXTT1=
EXTT2=
PLAYORDER=
